<?xml version="1.0" encoding="utf-8"?>
<!-- Generator: Adobe Illustrator 16.0.0, SVG Export Plug-In . SVG Version: 6.00 Build 0)  -->
<!DOCTYPE svg PUBLIC "-//W3C//DTD SVG 1.1//EN" "http://www.w3.org/Graphics/SVG/1.1/DTD/svg11.dtd">
<svg version="1.1" id="Layer_1" xmlns="http://www.w3.org/2000/svg" xmlns:xlink="http://www.w3.org/1999/xlink" x="0px" y="0px"
	 width="193.919px" height="193.918px" viewBox="0 0 193.919 193.918" enable-background="new 0 0 193.919 193.918"
	 xml:space="preserve">
<g>
	<path fill="#173092" d="M37.203,146.47l14.457,8.267l12.245-21.409c10.451,5.003,21.904,7.646,33.641,7.646
		c12.014,0,23.737-2.784,34.395-8.027l12.465,21.794l14.457-8.267L98.034,40.112L37.203,146.47z M97.545,124.324
		c-8.818,0-17.441-1.881-25.359-5.475l25.848-45.198l25.633,44.826C115.538,122.302,106.646,124.324,97.545,124.324z"/>
	<path fill="#FFFFFF" d="M0.324,0.716L0.32,194.13l193.412,0.001V0.72L0.324,0.716z M144.405,154.74l-12.465-21.794
		c-10.658,5.243-22.381,8.027-34.395,8.027c-11.736,0-23.189-2.643-33.641-7.646L51.66,154.737l-14.457-8.267L98.034,40.112
		l60.829,106.361L144.405,154.74z"/>
	<path fill="#FFFFFF" d="M72.186,118.849c7.918,3.594,16.541,5.475,25.359,5.475c9.1,0,17.993-2.021,26.122-5.847L98.034,73.651
		L72.186,118.849z"/>
</g>
</svg>
